<svg version="1.1" xmlns="http://www.w3.org/2000/svg" xmlns:xlink="http://www.w3.org/1999/xlink"
	 x="0px" y="0px" viewBox="0 0 22 22">
<g>
	<path d="M21.9,17.6c-0.1,0.4-0.4,0.5-0.8,0.5c-1.5,0.1-3,0.2-4.5,0.3c-1.8,0.2-3.6,0.5-5.2,1.2c-0.2,0.1-0.4,0.1-0.6,0
		c-1.4-0.6-2.8-0.9-4.2-1.1c-1.8-0.3-3.6-0.3-5.4-0.4c-0.1,0-0.2,0-0.4,0c-0.3-0.1-0.5-0.3-0.5-0.6c0-0.1,0-0.1,0-0.2
		c0-3.8,0-7.5,0-11.3c0-0.6,0.2-0.8,0.8-0.8c0.6,0,1.2,0,1.9,0.1c0-0.1,0-0.2,0-0.2c0-0.7,0-1.5,0-2.2C3,2.3,3.2,2,3.7,2.1
		c2.5,0.3,4.9,1.1,6.8,2.8C10.7,5,10.9,5.2,11,5.3c0,0,0.1,0,0.1-0.1c1.1-1.1,2.5-1.9,4-2.4c1.1-0.4,2.1-0.6,3.3-0.7
		c0.5,0,0.8,0.2,0.8,0.7c0,0.7,0,1.4,0,2.2c0,0.1,0,0.2,0,0.3c0.2,0,0.3,0,0.5,0c0.5,0,0.9,0,1.4,0c0.4,0,0.7,0.1,0.8,0.5
		C21.9,9.7,21.9,13.6,21.9,17.6z M4.2,3.4c0,3.7,0,7.3,0,10.9c2.3,0.5,4.4,1.5,6.2,3.1c0-0.1,0-0.2,0-0.3c0-3.2,0-6.5,0-9.7
		c0-1.1,0-1.1-0.9-1.8c-1.2-1-2.6-1.6-4-2C5.1,3.6,4.7,3.5,4.2,3.4z M11.7,17.5c1.8-1.6,3.9-2.6,6.2-3.1c0-3.6,0-7.2,0-10.9
		c-0.1,0-0.2,0-0.2,0c-0.9,0.2-1.8,0.4-2.7,0.8c-1.2,0.5-2.3,1.1-3.1,2.1c-0.1,0.1-0.2,0.2-0.2,0.4c0,3.5,0,7,0,10.4
		C11.7,17.3,11.7,17.3,11.7,17.5z M13.6,17.5C13.6,17.5,13.6,17.6,13.6,17.5c2.3-0.4,4.7-0.5,7-0.7c0-3.5,0-6.9,0-10.3
		c-0.5,0-0.9,0-1.4,0c0,0.1,0,0.2,0,0.3c0,2.6,0,5.3,0,7.9c0,0.5-0.2,0.7-0.6,0.8c-1.1,0.2-2.2,0.6-3.3,1.1
		C14.7,16.9,14.1,17.2,13.6,17.5z M8.5,17.6c-0.1-0.1-0.2-0.2-0.3-0.2c-1.4-0.9-2.9-1.5-4.5-1.8C3.1,15.4,3,15.2,3,14.7
		C3,12,3,9.4,3,6.8c0-0.1,0-0.2,0-0.3c-0.5,0-1,0-1.4,0c0,3.4,0,6.8,0,10.3C3.9,17,6.2,17.1,8.5,17.6z"/>
	<g>
		<path d="M9,7.4C9,7.9,8.5,8.2,8.1,8C7.5,7.6,6.9,7.4,6.2,7.2C5.9,7.2,5.7,6.8,5.8,6.5C5.8,6.2,6.1,5.9,6.5,6
			c0.8,0.1,1.6,0.5,2.3,0.9C9,7.1,9,7.2,9,7.4z"/>
		<path d="M13.7,8.1c-0.3,0-0.5-0.2-0.6-0.4c-0.1-0.3,0-0.5,0.2-0.7C14,6.5,14.8,6.1,15.6,6c0.3-0.1,0.6,0.2,0.7,0.5
			c0.1,0.3-0.1,0.7-0.5,0.7C15.2,7.4,14.6,7.6,14,8C13.9,8,13.8,8.1,13.7,8.1z"/>
	</g>
	<g>
		<path d="M9,10.4c0,0.5-0.5,0.8-0.9,0.5c-0.6-0.4-1.2-0.6-1.9-0.8c-0.3-0.1-0.5-0.4-0.5-0.7c0.1-0.3,0.4-0.6,0.7-0.5
			C7.3,9,8.1,9.4,8.8,9.8C9,10,9,10.1,9,10.4z"/>
		<path d="M13.7,11c-0.3,0-0.5-0.2-0.6-0.4c-0.1-0.3,0-0.5,0.2-0.7C14,9.4,14.8,9,15.6,8.9c0.3-0.1,0.6,0.2,0.7,0.5
			c0.1,0.3-0.1,0.7-0.5,0.7c-0.7,0.1-1.3,0.4-1.8,0.8C13.9,11,13.8,11,13.7,11z"/>
	</g>
	<g>
		<path d="M9,13.5C9,14,8.5,14.2,8,14c-0.5-0.2-0.9-0.4-1.4-0.7c-0.1,0-0.2-0.1-0.3-0.1c-0.3-0.1-0.6-0.4-0.5-0.7
			C5.9,12.2,6.2,12,6.5,12c0.8,0.2,1.5,0.5,2.2,0.9C8.9,13.1,9,13.2,9,13.5z"/>
		<path d="M15.7,12c0.3,0,0.6,0.2,0.7,0.5c0,0.3-0.1,0.6-0.4,0.7c-0.7,0.2-1.3,0.5-1.9,0.8c-0.3,0.2-0.7,0-0.8-0.2
			c-0.2-0.3-0.1-0.7,0.2-0.8c0.7-0.4,1.4-0.8,2.2-0.9C15.6,12,15.6,12,15.7,12z"/>
	</g>
</g>
</svg>
